<svg xmlns="http://www.w3.org/2000/svg" version="1.1" xmlns:xlink="http://www.w3.org/1999/xlink" width="512" height="512" x="0" y="0" viewBox="0 0 512 512" style="enable-background:new 0 0 512 512" xml:space="preserve" class=""><g><path fill="#f0915a" d="m144 248-38.627 38.627A32 32 0 0 0 96 309.255V472h112v-16a32 32 0 0 0 32-32V248z" opacity="1" data-original="#f0915a"></path><path fill="#d7e6f0" d="M400 16H160a32 32 0 0 0-32 32v344a32 32 0 0 0 32 32h192l80-72V48a32 32 0 0 0-32-32z" opacity="1" data-original="#d7e6f0" class=""></path><circle cx="280" cy="272" r="96" fill="#fabe19" opacity="1" data-original="#fabe19"></circle><path fill="#a5c3dc" d="M352 424v-40a32 32 0 0 1 32-32h48z" opacity="1" data-original="#a5c3dc"></path><path fill="#555a6e" d="M224 496H80v-8a16 16 0 0 1 16-16h112a16 16 0 0 1 16 16v8z" opacity="1" data-original="#555a6e"></path><path fill="#463c4b" d="M152 496H80v-8a16 16 0 0 1 16-16h56v24z" opacity="1" data-original="#463c4b" class=""></path><path fill="#fab991" d="m164.039 308.039-.725-.726a16 16 0 0 0-22.628 0L96 352v104a56 56 0 0 0 56-56v-34.667l12.039-12.039a32 32 0 0 0 0-45.255z" opacity="1" data-original="#fab991" class=""></path><path fill="#f0915a" d="m138.667 309.333 2.019 2.02a16 16 0 0 1 0 22.627l-1.7 1.7a8 8 0 0 1-11.314 0L120 328z" opacity="1" data-original="#f0915a"></path><g fill="#6478b9"><path d="M250.667 320a8 8 0 0 1-8-8v-8h-24a8 8 0 0 1-8-8v-32a40.045 40.045 0 0 1 40-40 8 8 0 0 1 8 8v56h8a8 8 0 0 1 0 16h-8v8a8 8 0 0 1-8 8zm-24-32h16v-46.629a24.041 24.041 0 0 0-16 22.629z" fill="#6478b9" opacity="1" data-original="#6478b9"></path><circle cx="282.667" cy="312" r="8" fill="#6478b9" opacity="1" data-original="#6478b9"></circle><path d="M322.667 320a24.028 24.028 0 0 1-24-24v-48a24 24 0 1 1 48 0v48a24.028 24.028 0 0 1-24 24zm0-80a8.009 8.009 0 0 0-8 8v48a8 8 0 0 0 16 0v-48a8.009 8.009 0 0 0-8-8z" fill="#6478b9" opacity="1" data-original="#6478b9"></path></g><rect width="272" height="24" x="144" y="72" fill="#353744" rx="12" opacity="1" data-original="#353744"></rect><rect width="136" height="24" x="144" y="72" fill="#55525b" rx="12" opacity="1" data-original="#55525b"></rect><path fill="#353744" d="M200 96h160v48a8 8 0 0 1-8 8H208a8 8 0 0 1-8-8V96z" opacity="1" data-original="#353744"></path><path fill="#55525b" d="M200 112h80v40h-72a8 8 0 0 1-8-8v-32z" opacity="1" data-original="#55525b"></path><path fill="#fabe19" d="M280 56h104a16 16 0 0 1 16 16H264a16 16 0 0 1 16-16z" opacity="1" data-original="#fabe19"></path><path fill="#f5871e" d="M384 72h16v32h-16z" opacity="1" data-original="#f5871e"></path><path fill="#a5c3dc" d="M384 104h16v8h-16z" opacity="1" data-original="#a5c3dc"></path><path fill="#fabe19" d="M384 112h16a8 8 0 0 1 8 8v44a4 4 0 0 1-4 4h-24a4 4 0 0 1-4-4v-44a8 8 0 0 1 8-8z" opacity="1" data-original="#fabe19"></path><path fill="#f5871e" d="M396 120h12v44a4 4 0 0 1-4 4h-12v-44a4 4 0 0 1 4-4z" opacity="1" data-original="#f5871e"></path></g></svg>